<svg viewBox="0 0 400 400" xmlns="http://www.w3.org/2000/svg">
  <rect width="400" height="400" fill="#F1DDE1"/>
  <path d="M60 210 Q40 260 90 300 Q60 320 90 355" fill="none" stroke="#EDEDED" stroke-width="6" stroke-linecap="round"/>
  <g fill="#EDEDED" stroke="#D9D9D9" stroke-width="1">
    <circle cx="60" cy="210" r="8"/><circle cx="52" cy="228" r="8"/><circle cx="48" cy="248" r="8"/>
    <circle cx="52" cy="268" r="8"/><circle cx="68" cy="284" r="8"/><circle cx="88" cy="292" r="8"/>
    <circle cx="72" cy="306" r="8"/><circle cx="62" cy="324" r="8"/><circle cx="66" cy="344" r="8"/>
    <circle cx="82" cy="356" r="8"/>
  </g>

  <g transform="translate(220,210)">
    <circle r="145" fill="#8B1E2E"/>
    <path d="M0 0 m0 -118 a118 118 0 0 1 118 118 a92 92 0 0 1 -92 92 a70 70 0 0 1 -70 -70 a48 48 0 0 1 48 -48 a28 28 0 0 1 28 28"
          fill="none" stroke="#6E1723" stroke-width="10" stroke-linejoin="round"/>
    <path d="M0 -95 a95 95 0 0 1 95 95" fill="none" stroke="#A5324A" stroke-width="6" opacity="0.6"/>
    <path d="M0 -70 a70 70 0 0 1 70 70 a54 54 0 0 1 -54 54" fill="none" stroke="#A5324A" stroke-width="6" opacity="0.6"/>
    <circle r="145" fill="none" stroke="#6E1723" stroke-width="8"/>
  </g>
</svg>
